<svg xmlns="http://www.w3.org/2000/svg" viewBox="0 0 221.63 212.04"><g id="Onderkant"><rect id="onderkant-2" data-name="onderkant" x="51.27" y="180.3" width="119.09" height="31.73" rx="5.59" style="fill:#b7b7b7"/></g><g id="Bovenkant"><path id="bovenkant-2" data-name="bovenkant" d="M110.81,62.33h0a51.74,51.74,0,0,1,51.74,51.74V180.3a0,0,0,0,1,0,0H59.07a0,0,0,0,1,0,0V114.07A51.74,51.74,0,0,1,110.81,62.33Z" style="fill:#e04d48"/></g><g id="Streep-midden"><rect id="streep-middel" x="105.08" width="11.47" height="41.39" rx="5.74" style="fill:#e04d48"/></g><g id="Streep-r"><rect id="streep-r-2" data-name="streep-r" x="333.19" y="88.01" width="11.47" height="41.39" rx="5.74" transform="translate(-25.7 -244.53) rotate(36.87)" style="fill:#e04d48"/></g><g id="Streep-ll"><rect id="streep-ll-2" data-name="streep-ll" x="173.65" y="148.93" width="11.47" height="41.39" rx="5.74" transform="translate(-148.93 286.08) rotate(-90)" style="fill:#e04d48"/></g><g id="Streep-l"><rect id="streep-l-2" data-name="streep-l" x="195.71" y="83.63" width="11.47" height="41.39" rx="5.74" transform="translate(-173.45 110.07) rotate(-45)" style="fill:#e04d48"/></g><g id="Streep-rr"><rect id="streep-rr-2" data-name="streep-rr" x="353.88" y="148.93" width="11.47" height="41.39" rx="5.74" transform="translate(370.56 -252.92) rotate(90)" style="fill:#e04d48"/></g></svg>
