<svg xmlns="http://www.w3.org/2000/svg" viewBox="0 0 1568 11"><g id="Streep-1"><g id="Streep1"><polygon points="196 11 0 11 5 0 201 0 196 11" style="fill:#e4e4ea"/></g></g><g id="Streep-2"><g id="Streep2"><polygon points="392 11 196 11 201 0 397 0 392 11" style="fill:#e4e4ea"/></g></g><g id="Streep-3"><g id="Streep3"><polygon points="588 11 392 11 397 0 593 0 588 11" style="fill:#e4e4ea"/></g></g><g id="Streep-4"><g id="Streep4"><polygon points="784 11 588 11 593 0 789 0 784 11" style="fill:#e4e4ea"/></g></g><g id="Streep-5"><g id="Streep5"><polygon points="980 11 784 11 789 0 985 0 980 11" style="fill:#e4e4ea"/></g></g><g id="Streep-6"><g id="Streep6"><polygon points="1176 11 980 11 985 0 1181 0 1176 11" style="fill:#e4e4ea"/></g></g><g id="Streep-7"><g id="Streep7"><polygon points="1372 11 1176 11 1181 0 1377 0 1372 11" style="fill:#e4e4ea"/></g></g><g id="Streep-8"><g id="Streep8"><polygon points="1568 11 1372 11 1377 0 1568 0 1568 11" style="fill:#e4e4ea"/></g></g></svg>