<svg xmlns="http://www.w3.org/2000/svg" viewBox="0 0 365.22 571.27"><g id="Streep9"><g id="Streep9-2" data-name="Streep9"><polygon points="57.44 379.41 11.36 569.91 0 569.51 46.08 379 57.44 379.41" style="fill:#e4e4ea"/></g></g><g id="Streep10"><g id="Streep10-2" data-name="Streep10"><polygon points="103.44 189.41 57.35 379.91 46.22 378.46 93.08 184 103.44 189.41" style="fill:#e4e4ea"/></g></g><g id="Streep11"><g id="Streep11-2" data-name="Streep11"><polygon points="148.44 2.41 102.36 192.91 91 190.51 137.08 0 148.44 2.41" style="fill:#e4e4ea"/></g></g><g id="Streep12"><g id="Streep12-2" data-name="Streep12"><polygon points="149.08 3.31 176.14 197.43 164.36 196.61 137.3 2.48 149.08 3.31" style="fill:#e4e4ea"/></g></g><g id="Streep13"><g id="Streep13-2" data-name="Streep13"><polygon points="176.08 196.31 203.14 390.43 191.36 391.61 164.22 192.46 176.08 196.31" style="fill:#e4e4ea"/></g></g><g id="Streep14"><g id="Streep14-2" data-name="Streep14"><polygon points="203.08 388.31 228.14 569.43 218.11 571.16 193.22 390.46 203.08 388.31" style="fill:#e4e4ea"/></g></g><g id="Streep15"><g id="Streep15-2" data-name="Streep15"><polygon points="217.06 558.46 365.22 557.64 365.22 570.46 217.39 571.27 217.06 558.46" style="fill:#e4e4ea"/></g></g></svg>